<?xml version="1.0" encoding="utf-8"?>
<!-- Generator: Adobe Illustrator 16.0.0, SVG Export Plug-In . SVG Version: 6.00 Build 0)  -->
<!DOCTYPE svg PUBLIC "-//W3C//DTD SVG 1.1//EN" "http://www.w3.org/Graphics/SVG/1.1/DTD/svg11.dtd">
<svg version="1.1" id="Layer_1" xmlns="http://www.w3.org/2000/svg" xmlns:xlink="http://www.w3.org/1999/xlink" x="0px" y="0px"
	 width="1080px" height="1000px" viewBox="0 0 1080 1000" enable-background="new 0 0 1080 1000" xml:space="preserve">
<path fill="#FFFFFF" d="M476.32,591.379c0,36.101-3.256,71.448-10.025,104.54c-6.769,33.845-18.802,63.176-35.348,89.499
	s-39.109,47.382-68.44,63.176c-28.579,15.793-64.68,24.066-108.301,24.066c-38.356,0-75.209-6.769-109.805-21.059
	c-35.348-14.29-66.184-36.853-94.011-67.688L33.844,800.46c26.323,29.331,57.159,52.646,94.011,69.191
	c36.853,16.546,78.969,24.067,125.599,24.067c45.877,0,84.986-8.273,116.574-24.067c31.587-16.546,56.407-38.356,75.96-65.432
	c18.803-27.827,33.093-59.415,41.365-95.515c8.273-36.101,12.786-74.457,12.786-114.318V122.075h-24.067v135.376h-3.008
	c-21.811-49.638-52.646-87.242-92.507-112.813c-39.861-24.819-83.482-37.604-131.616-37.604c-36.1,0-69.192,6.769-100.028,20.307
	s-57.159,32.34-78.969,55.655c-21.811,24.067-39.109,51.894-51.894,84.986C6.017,300.32,0,335.669,0,373.273
	s6.017,72.2,18.05,104.54c12.033,32.34,29.332,60.167,51.142,83.481c21.811,23.315,48.133,42.117,78.969,55.655
	c30.835,13.537,63.928,20.306,100.028,20.306c24.067,0,47.381-3.008,69.944-9.776c22.562-6.77,43.621-15.794,63.175-28.58
	c19.554-12.785,36.852-28.579,53.398-46.629c15.794-18.803,28.58-39.861,37.604-64.68h4.009V591.379L476.32,591.379z
	 M39.861,279.262c10.529-29.332,25.571-55.654,45.125-78.217c19.555-22.562,42.869-40.613,70.697-53.398
	c27.827-13.538,58.663-20.307,94.011-20.307c33.092,0,63.928,6.769,91.755,19.554c27.828,12.786,51.895,30.836,72.201,52.646
	c20.306,21.811,36.1,48.134,47.381,77.465c11.281,29.331,17.299,60.919,17.299,94.763c0,33.092-6.018,64.68-17.299,94.764
	c-11.281,29.331-27.075,55.654-47.381,78.217c-20.307,22.563-44.374,39.861-72.201,53.398
	c-27.827,12.786-58.663,19.555-91.755,19.555c-34.596,0-66.184-6.769-94.011-19.555c-27.828-12.785-51.142-30.835-70.696-53.398
	c-19.555-22.562-34.596-48.134-45.125-78.217c-10.529-29.332-15.794-60.919-15.794-93.259S29.332,309.346,39.861,279.262z"/>
<path fill="#FFFFFF" d="M1060.445,264.22c-12.785-32.34-30.835-60.167-53.398-82.73c-23.314-23.314-50.39-41.365-82.729-54.15
	s-67.688-19.554-105.292-19.554c-38.357,0-72.953,6.769-105.293,19.554c-31.588,12.033-59.415,30.083-82.729,53.398
	c-23.314,23.314-40.613,51.142-53.398,82.729c-12.785,32.34-18.802,67.688-18.802,106.797s6.017,75.209,18.802,107.549
	s30.836,60.919,53.398,84.233c23.314,23.315,50.39,42.117,81.978,54.903c31.588,12.785,66.936,19.554,105.293,19.554
	c38.356,0,73.704-6.769,105.292-19.554c32.34-12.786,59.415-31.588,82.729-54.902c23.315-23.315,40.613-51.895,53.398-84.234
	c12.786-32.34,18.803-68.44,18.803-107.549C1080,331.908,1073.231,295.808,1060.445,264.22z M1039.387,466.532
	c-10.529,29.331-26.322,55.654-47.381,77.465c-20.307,21.811-45.126,39.861-74.457,52.646
	c-29.332,12.785-62.424,19.554-99.275,19.554c-36.853,0-69.945-6.769-98.524-19.554s-53.398-30.836-74.457-52.646
	c-20.306-21.811-36.1-48.134-47.381-77.465c-10.529-29.332-16.546-61.672-16.546-95.516c0-33.092,5.265-64.68,16.546-94.763
	c10.529-29.332,26.323-55.655,47.381-77.465c20.307-21.811,45.126-39.108,74.457-51.894c28.58-12.786,61.672-18.802,98.524-18.802
	c36.852,0,69.943,6.017,99.275,18.802c29.331,12.786,54.15,30.083,74.457,51.894c20.306,21.811,36.1,48.134,47.381,77.465
	c10.529,29.332,16.547,60.919,16.547,94.763S1050.668,436.448,1039.387,466.532z"/>
<path fill="#FFFFFF" d="M848.356,182.995h-34.596l-97.771,80.473l24.066,27.075l69.192-59.415v336.184h39.108V182.995
	L848.356,182.995z"/>
</svg>
