<?xml version="1.0" encoding="UTF-8" standalone="no"?>
<svg width="85px" height="62px" viewBox="0 0 85 62" version="1.1" xmlns="http://www.w3.org/2000/svg" xmlns:xlink="http://www.w3.org/1999/xlink" xmlns:sketch="http://www.bohemiancoding.com/sketch/ns">
    <!-- Generator: Sketch 3.0.4 (8054) - http://www.bohemiancoding.com/sketch -->
    <title>Imported Layers</title>
    <desc>Created with Sketch.</desc>
    <defs></defs>
    <g id="Welcome" stroke="none" stroke-width="1" fill="none" fill-rule="evenodd" sketch:type="MSPage">
        <g id="Desktop-HD-6" sketch:type="MSArtboardGroup" transform="translate(-199.000000, -36.000000)">
            <g id="Imported-Layers" sketch:type="MSLayerGroup" transform="translate(200.000000, 37.000000)">
                <path d="M36.6294223,36.9838528 C36.6294223,39.7609472 36.364038,42.4410453 35.8350115,45.0241472 C35.3048236,47.6072491 34.3989165,49.8982075 33.1172904,51.8981774 C31.8345027,53.8975698 30.0784368,55.5078226 27.8496732,56.7306679 C25.6191674,57.9517811 22.8323418,58.5632038 19.4874543,58.5632038 C16.5316422,58.5632038 13.7030055,58.0216415 10.9998021,56.938517 C8.29543728,55.8553925 5.88433083,54.1186981 3.76648276,51.7313208 L2.51214993,52.9813019 C4.51908246,55.2578264 6.94412594,57.022234 9.78728036,58.2716377 C12.6304348,59.5216189 15.8626647,60.1463208 19.4874543,60.1463208 C23.0541729,60.1463208 26.0517961,59.5216189 28.4762589,58.2716377 C30.9013023,57.022234 32.8524868,55.3415434 34.3298121,53.2312981 C35.8065567,51.1193208 36.8657711,48.6759396 37.5074553,45.8988453 C38.147978,43.1211736 38.4691104,40.2049358 38.4691104,37.1507094 L38.4691104,0.990169811 L36.6294223,0.990169811 L36.6294223,11.4051396 L36.3785557,11.4051396 C34.7061119,7.57263396 32.3228796,4.68526415 29.2288586,2.7401434 C26.1348376,0.796177358 22.7487196,-0.17609434 19.0693433,-0.17609434 C16.2807756,-0.17609434 13.7030055,0.338332075 11.3342909,1.36545283 C8.96441479,2.3937283 6.9296082,3.82326792 5.22987106,5.65638113 C3.52897251,7.48891698 2.20553523,9.65516604 1.2583978,12.1551283 C0.309518241,14.6545132 -0.16376012,17.3496226 -0.16376012,20.2369925 C-0.16376012,23.125517 0.309518241,25.8061925 1.2583978,28.2772868 C2.20553523,30.7495358 3.52897251,32.8880717 5.22987106,34.6928943 C6.9296082,36.4982943 8.96441479,37.9145547 11.3342909,38.9422528 C13.7030055,39.9693736 16.2807756,40.4832226 19.0693433,40.4832226 C20.9090315,40.4832226 22.7069085,40.2332264 24.4629745,39.733234 C26.2184598,39.2332415 27.8496732,38.4976868 29.3542919,37.5254151 C30.8594913,36.5542981 32.2253203,35.359166 33.4517791,33.9429057 C34.6776572,32.5266453 35.6532494,30.8742453 36.3785557,28.9851283 L36.6294223,28.9851283 L36.6294223,36.9838528 L36.6294223,36.9838528 Z M2.88844978,13.0713962 C3.69621689,10.7948717 4.85357121,8.79490189 6.35877061,7.07264151 C7.86397001,5.35153585 9.68914043,3.97684528 11.836024,2.94856981 C13.9811654,1.9208717 16.3934333,1.40702264 19.0693433,1.40702264 C21.6325957,1.40702264 23.9885347,1.90701509 26.1348376,2.90642264 C28.2805597,3.90640755 30.1347656,5.25396226 31.6957131,6.94735472 C33.25608,8.64247925 34.4831194,10.6280151 35.3750895,12.905117 C36.2664788,15.1833736 36.7130445,17.5990415 36.7130445,20.1538528 C36.7130445,22.7092415 36.2664788,25.1254868 35.3750895,27.4025887 C34.4831194,29.6808453 33.25608,31.6802377 31.6957131,33.4013434 C30.1347656,35.1236038 28.2805597,36.4838604 26.1348376,37.4838453 C23.9885347,38.4838302 21.6325957,38.9838226 19.0693433,38.9838226 C16.3934333,38.9838226 13.9811654,38.4838302 11.836024,37.4838453 C9.68914043,36.4838604 7.86397001,35.1236038 6.35877061,33.4013434 C4.85357121,31.6802377 3.69621689,29.6808453 2.88844978,27.4025887 C2.08010195,25.1254868 1.67592804,22.7363774 1.67592804,20.2369925 C1.67592804,17.7376075 2.08010195,15.3496528 2.88844978,13.0713962 L2.88844978,13.0713962 Z" id="Fill-1" fill="#1A70D4" sketch:type="MSShapeGroup"></path>
                <path d="M81.7418511,11.8635623 C80.7662589,9.39246792 79.3864928,7.26778868 77.6025527,5.48952453 C75.818032,3.71241509 73.6856662,2.32329057 71.206036,1.32330566 C68.7246637,0.323898113 66.0069425,-0.17609434 63.0528726,-0.17609434 C60.0976412,-0.17609434 57.3938571,0.323898113 54.9415202,1.32330566 C52.488022,2.32329057 50.3701739,3.71241509 48.5868146,5.48952453 C46.8017131,7.26778868 45.421947,9.39246792 44.4475162,11.8635623 C43.4713433,14.3358113 42.9841279,17.0707585 42.9841279,20.0701358 C42.9841279,23.0695132 43.4713433,25.8194717 44.4475162,28.3188566 C45.421947,30.8182415 46.8017131,32.9717887 48.5868146,34.776034 C50.3701739,36.581434 52.488022,37.9838377 54.9415202,38.9838226 C57.3938571,39.9832302 60.0976412,40.4832226 63.0528726,40.4832226 C66.0069425,40.4832226 68.7246637,39.9832302 71.206036,38.9838226 C73.6856662,37.9838377 75.818032,36.581434 77.6025527,34.776034 C79.3864928,32.9717887 80.7662589,30.8182415 81.7418511,28.3188566 C82.7168626,25.8194717 83.2052394,23.0695132 83.2052394,20.0701358 C83.2052394,17.0707585 82.7168626,14.3358113 81.7418511,11.8635623 L81.7418511,11.8635623 Z M80.1112184,27.4025887 C79.2749965,29.6808453 78.0630555,31.6658038 76.4736532,33.3597736 C74.8854123,35.0548981 72.9621019,36.4007208 70.7043028,37.4007057 C68.4465037,38.4001132 65.896027,38.9001057 63.0528726,38.9001057 C60.2097181,38.9001057 57.6725977,38.4001132 55.4432534,37.4007057 C53.2133283,36.4007208 51.303955,35.0548981 49.7157141,33.3597736 C48.1268926,31.6658038 46.9143708,29.6808453 46.0781489,27.4025887 C45.241927,25.1254868 44.8238161,22.6821057 44.8238161,20.0701358 C44.8238161,17.5159019 45.241927,15.0996566 46.0781489,12.8214 C46.9143708,10.5448755 48.1268926,8.55933962 49.7157141,6.86421509 C51.303955,5.17082264 53.2133283,3.83770189 55.4432534,2.86485283 C57.6725977,1.89373585 60.2097181,1.40702264 63.0528726,1.40702264 C65.896027,1.40702264 68.4465037,1.89373585 70.7043028,2.86485283 C72.9621019,3.83770189 74.8854123,5.17082264 76.4736532,6.86421509 C78.0630555,8.55933962 79.2749965,10.5448755 80.1112184,12.8214 C80.9474403,15.0996566 81.3655512,17.5159019 81.3655512,20.0701358 C81.3655512,22.6821057 80.9474403,25.1254868 80.1112184,27.4025887 L80.1112184,27.4025887 Z" id="Fill-2" fill="#1A70D4" sketch:type="MSShapeGroup"></path>
                <path d="M65.3489985,5.65060755 L62.6736692,5.65060755 L55.1476722,11.8162189 L56.9873603,13.8987509 L62.3391804,9.35782642 L62.3391804,35.144966 L65.3489985,35.144966 L65.3489985,5.65060755" id="Fill-3" fill="#196FD4" sketch:type="MSShapeGroup"></path>
            </g>
        </g>
    </g>
</svg>
