<?xml version="1.0" encoding="iso-8859-1"?>
<!-- Generator: Adobe Illustrator 15.1.0, SVG Export Plug-In . SVG Version: 6.00 Build 0)  -->
<!DOCTYPE svg PUBLIC "-//W3C//DTD SVG 1.1//EN" "http://www.w3.org/Graphics/SVG/1.1/DTD/svg11.dtd">
<svg version="1.1" id="Layer_1" xmlns="http://www.w3.org/2000/svg" xmlns:xlink="http://www.w3.org/1999/xlink" x="0px" y="0px"
	 width="13.5px" height="18px" viewBox="998.963 0 13.5 18" style="enable-background:new 998.963 0 13.5 18;" xml:space="preserve"
	>
<path style="fill:#8781BD;" d="M1005.713,18c0,0-6.75-7.523-6.75-11.25c0-3.728,3.022-6.75,6.75-6.75c3.729,0,6.75,3.022,6.75,6.75
	S1005.713,18,1005.713,18z M1005.713,2.25c-2.484,0-4.5,2.015-4.5,4.5s2.016,4.5,4.5,4.5c2.485,0,4.5-2.015,4.5-4.5
	S1008.199,2.25,1005.713,2.25z M1007.963,7.594h-1.406V9c0,0.466-0.378,0.844-0.844,0.844S1004.87,9.466,1004.87,9V7.594h-1.406
	c-0.466,0-0.844-0.378-0.844-0.844s0.377-0.844,0.844-0.844h1.406V4.5c0-0.466,0.378-0.844,0.844-0.844s0.844,0.377,0.844,0.844
	v1.406h1.406c0.466,0,0.844,0.378,0.844,0.844C1008.807,7.216,1008.429,7.594,1007.963,7.594z"/>
</svg>
