<?xml version="1.0" encoding="iso-8859-1"?>
<!-- Generator: Adobe Illustrator 15.1.0, SVG Export Plug-In . SVG Version: 6.00 Build 0)  -->
<!DOCTYPE svg PUBLIC "-//W3C//DTD SVG 1.1//EN" "http://www.w3.org/Graphics/SVG/1.1/DTD/svg11.dtd">
<svg version="1.1" id="Layer_1" xmlns="http://www.w3.org/2000/svg" xmlns:xlink="http://www.w3.org/1999/xlink" x="0px" y="0px"
	 width="11.638px" height="18.346px" viewBox="446.648 31.76 11.638 18.346"
	 style="enable-background:new 446.648 31.76 11.638 18.346;" xml:space="preserve">
<path style="fill:#A3B3C3;" d="M457.407,50.105c-0.485,0-0.879-0.394-0.879-0.879c0-0.484,0.393-0.879,0.879-0.879
	c0.485,0,0.879,0.394,0.879,0.879S457.892,50.105,457.407,50.105z M447.296,41.366h10.343v0.805h-10.343V41.366z M447.288,40.583
	c0-2.267,2.011-3.654,3.446-4.986c0.009-0.008,0.013-0.025,0.02-0.035v-3.764h1.254c0.113-0.023,0.234-0.038,0.369-0.038
	c0.152,0,0.289,0.013,0.416,0.038h1.419v3.854c0,0.001,0.001,0.001,0.001,0.002c1.46,1.372,3.438,2.709,3.438,4.913
	C457.652,40.702,447.288,40.615,447.288,40.583z M448.406,49.227c0,0.485-0.395,0.879-0.879,0.879c-0.485,0-0.879-0.394-0.879-0.879
	c0-0.484,0.394-0.879,0.879-0.879C448.012,48.348,448.406,48.741,448.406,49.227z M447.823,46.74c0-0.485,0.394-0.879,0.879-0.879
	c0.484,0,0.879,0.393,0.879,0.879s-0.395,0.879-0.879,0.879C448.217,47.619,447.823,47.225,447.823,46.74z M449.997,48.348
	c0.485,0,0.879,0.394,0.879,0.879s-0.394,0.879-0.879,0.879s-0.879-0.394-0.879-0.879S449.511,48.348,449.997,48.348z
	 M449.305,44.27c0-0.484,0.395-0.879,0.879-0.879c0.486,0,0.879,0.395,0.879,0.879c0,0.485-0.393,0.879-0.879,0.879
	C449.699,45.148,449.305,44.755,449.305,44.27z M450.293,46.74c0-0.485,0.395-0.879,0.879-0.879c0.486,0,0.879,0.393,0.879,0.879
	s-0.393,0.879-0.879,0.879C450.688,47.619,450.293,47.225,450.293,46.74z M452.467,48.348c0.486,0,0.879,0.394,0.879,0.879
	s-0.393,0.879-0.879,0.879c-0.484,0-0.879-0.394-0.879-0.879S451.981,48.348,452.467,48.348z M451.775,44.27
	c0-0.484,0.394-0.879,0.879-0.879c0.484,0,0.879,0.395,0.879,0.879c0,0.485-0.395,0.879-0.879,0.879
	C452.169,45.148,451.775,44.755,451.775,44.27z M452.763,46.74c0-0.485,0.395-0.879,0.879-0.879c0.486,0,0.88,0.393,0.88,0.879
	s-0.394,0.879-0.88,0.879C453.157,47.619,452.763,47.225,452.763,46.74z M454.938,48.348c0.484,0,0.879,0.394,0.879,0.879
	s-0.395,0.879-0.879,0.879c-0.486,0-0.88-0.394-0.88-0.879S454.451,48.348,454.938,48.348z M454.245,44.27
	c0-0.484,0.394-0.879,0.879-0.879s0.879,0.395,0.879,0.879c0,0.485-0.394,0.879-0.879,0.879S454.245,44.755,454.245,44.27z
	 M456.991,46.74c0,0.484-0.394,0.879-0.879,0.879c-0.486,0-0.879-0.395-0.879-0.879c0-0.485,0.393-0.879,0.879-0.879
	C456.598,45.861,456.991,46.254,456.991,46.74z"/>
</svg>
