<?xml version="1.0" encoding="iso-8859-1"?>
<!-- Generator: Adobe Illustrator 15.1.0, SVG Export Plug-In . SVG Version: 6.00 Build 0)  -->
<!DOCTYPE svg PUBLIC "-//W3C//DTD SVG 1.1//EN" "http://www.w3.org/Graphics/SVG/1.1/DTD/svg11.dtd">
<svg version="1.1" id="Layer_1" xmlns="http://www.w3.org/2000/svg" xmlns:xlink="http://www.w3.org/1999/xlink" x="0px" y="0px"
	 width="16.501px" height="16.503px" viewBox="998.748 469.246 16.501 16.503"
	 style="enable-background:new 998.748 469.246 16.501 16.503;" xml:space="preserve">
<path style="fill:#F37A6C;" d="M1015.229,477.633L1015.229,477.633c0.007,0.029,0.011,0.06,0.014,0.088
	c0.001,0.005,0.002,0.012,0.002,0.017c0.003,0.028,0.004,0.059,0.004,0.089c0,0.006,0.001,0.011,0.001,0.017l0,0l0,0
	c0,0.255-0.093,0.488-0.246,0.667l0,0l-5.843,6.875h-0.001c-0.189,0.223-0.47,0.364-0.785,0.364l0,0l0,0
	c-0.034,0-0.067-0.002-0.1-0.005c-0.023-0.002-0.046-0.006-0.069-0.01c-0.008-0.001-0.016-0.002-0.023-0.004
	c-0.185-0.035-0.352-0.119-0.486-0.238l-0.001,0.001l-8.594-7.906l0.004-0.004c-0.211-0.187-0.348-0.453-0.353-0.755h-0.004v-5.521
	v-1.012v-0.017h0.002c0-0.569,0.462-1.031,1.031-1.031v-0.002h6.529v0.002c0,0,0.001,0,0.002,0c0.286,0,0.544,0.116,0.729,0.304
	l7.897,7.554C1015.083,477.248,1015.188,477.429,1015.229,477.633z M1001.5,470.625c-0.759,0-1.375,0.616-1.375,1.375
	c0,0.76,0.616,1.375,1.375,1.375s1.375-0.615,1.375-1.375S1002.259,470.625,1001.5,470.625z"/>
</svg>
