<?xml version="1.0" encoding="iso-8859-1"?>
<!-- Generator: Adobe Illustrator 15.1.0, SVG Export Plug-In . SVG Version: 6.00 Build 0)  -->
<!DOCTYPE svg PUBLIC "-//W3C//DTD SVG 1.1//EN" "http://www.w3.org/Graphics/SVG/1.1/DTD/svg11.dtd">
<svg version="1.1" id="Layer_1" xmlns="http://www.w3.org/2000/svg" xmlns:xlink="http://www.w3.org/1999/xlink" x="0px" y="0px"
	 width="14.391px" height="14.388px" viewBox="527.833 34.384 14.391 14.388"
	 style="enable-background:new 527.833 34.384 14.391 14.388;" xml:space="preserve">
<path style="fill:none;" d="M0,76v-1h523v1H0z"/>
<path style="fill:#A3B3C3;" d="M541.548,48.771h-2.699c-0.373,0-0.674-0.302-0.674-0.674c0-0.373,0.301-0.676,0.674-0.676h2.023
	V45.4l0,0c0-0.373,0.303-0.674,0.674-0.674c0.373,0,0.676,0.301,0.676,0.674v2.697C542.222,48.47,541.919,48.771,541.548,48.771z
	 M541.548,39.779c0.373,0,0.674,0.302,0.674,0.675v2.248c0,0.372-0.301,0.675-0.674,0.675s-0.674-0.302-0.674-0.675v-2.248
	C540.875,40.082,541.175,39.779,541.548,39.779z M541.548,38.431c-0.373,0-0.674-0.302-0.674-0.675l0,0v-2.023h-2.023l0,0
	c-0.373,0-0.676-0.302-0.676-0.675c0-0.372,0.303-0.674,0.676-0.674l0,0h2.697c0.373,0,0.676,0.302,0.676,0.674v2.698
	C542.222,38.129,541.919,38.431,541.548,38.431z M536.152,48.771h-2.248c-0.373,0-0.676-0.302-0.676-0.674
	c0-0.373,0.303-0.676,0.676-0.676h2.248c0.373,0,0.674,0.303,0.674,0.676C536.826,48.47,536.525,48.771,536.152,48.771z
	 M536.152,35.733h-2.248c-0.373,0-0.676-0.302-0.676-0.675c0-0.372,0.303-0.674,0.676-0.674h2.248c0.373,0,0.674,0.302,0.674,0.674
	C536.828,35.431,536.525,35.733,536.152,35.733z M531.207,48.771h-2.697c-0.373,0-0.676-0.302-0.676-0.674V45.4l0,0
	c0-0.373,0.303-0.674,0.676-0.674c0.371,0,0.674,0.301,0.674,0.674v2.022h2.023c0.373,0,0.674,0.302,0.674,0.675
	S531.58,48.771,531.207,48.771z M529.183,40.454v2.248c0,0.372-0.303,0.675-0.674,0.675c-0.373,0-0.676-0.302-0.676-0.675v-2.248
	c0-0.372,0.303-0.675,0.676-0.675C528.88,39.779,529.183,40.082,529.183,40.454z M531.207,35.733L531.207,35.733h-2.023v2.023
	c0,0.373-0.301,0.675-0.674,0.675s-0.674-0.302-0.674-0.675l0,0v-2.698c0-0.372,0.301-0.674,0.674-0.674h2.699l0,0
	c0.373,0,0.674,0.302,0.674,0.674C531.88,35.431,531.58,35.733,531.207,35.733z"/>
</svg>
