<?xml version="1.0" encoding="iso-8859-1"?>
<!-- Generator: Adobe Illustrator 15.1.0, SVG Export Plug-In . SVG Version: 6.00 Build 0)  -->
<!DOCTYPE svg PUBLIC "-//W3C//DTD SVG 1.1//EN" "http://www.w3.org/Graphics/SVG/1.1/DTD/svg11.dtd">
<svg version="1.1" id="Layer_1" xmlns="http://www.w3.org/2000/svg" xmlns:xlink="http://www.w3.org/1999/xlink" x="0px" y="0px"
	 width="17.92px" height="18.002px" viewBox="993.006 170.662 17.92 18.002"
	 style="enable-background:new 993.006 170.662 17.92 18.002;" xml:space="preserve">
<path style="fill:#5CB8D7;" d="M1010.43,185.555h-1.246v-1.246c0-0.273-0.223-0.496-0.496-0.496s-0.496,0.223-0.496,0.496v1.246
	h-1.246c-0.273,0-0.496,0.223-0.496,0.496s0.223,0.496,0.496,0.496h1.246v1.246c0,0.273,0.223,0.496,0.496,0.496
	s0.496-0.223,0.496-0.496v-1.246h1.246c0.273,0,0.496-0.223,0.496-0.496S1010.704,185.555,1010.43,185.555z"/>
<path style="fill:#5CB8D7;" d="M1005.204,186.05c0-0.962,0.779-1.741,1.742-1.741c0-0.567,0.273-1.065,0.695-1.385
	c-0.23-0.061-0.551-0.166-1.07-0.382c-1.803-0.746-2.23-0.99-2.23-0.99l-0.016-1.711c0,0,0.676-0.512,0.885-2.13
	c0.422,0.122,0.564-0.494,0.588-0.887c0.025-0.381,0.248-1.565-0.266-1.459c0.104-0.791,0.188-1.506,0.148-1.885
	c-0.129-1.33-1.047-2.717-3.365-2.818c-1.973,0.102-3.252,1.49-3.383,2.818c-0.035,0.379,0.039,1.094,0.145,1.886
	c-0.516-0.107-0.293,1.079-0.271,1.46c0.025,0.393,0.164,1.011,0.586,0.889c0.211,1.619,0.887,2.135,0.887,2.135l-0.018,1.721
	c0,0-0.428,0.261-2.229,1.007c-1.803,0.747-1.238,0.155-2.705,0.885c-2.32,1.154-2.32,4.329-2.32,4.329c0,0.001,0,0.001,0,0.002
	c0,0.48,0.391,0.871,0.871,0.871h13.311c-0.15-0.257-0.242-0.553-0.242-0.871C1005.983,187.793,1005.204,187.012,1005.204,186.05z"
	/>
</svg>
