<?xml version="1.0" encoding="utf-8"?>
<!-- Generator: Adobe Illustrator 15.1.0, SVG Export Plug-In . SVG Version: 6.00 Build 0)  -->
<!DOCTYPE svg PUBLIC "-//W3C//DTD SVG 1.1//EN" "http://www.w3.org/Graphics/SVG/1.1/DTD/svg11.dtd">
<svg version="1.1" id="Layer_1" xmlns="http://www.w3.org/2000/svg" xmlns:xlink="http://www.w3.org/1999/xlink" x="0px" y="0px"
	 width="805.088px" height="324.176px" viewBox="0 0 805.088 324.176" enable-background="new 0 0 805.088 324.176"
	 xml:space="preserve">
<g>
	<g>
		<path fill-rule="evenodd" clip-rule="evenodd" fill="#FFFFFF" d="M145.113,0.866c60.349-5.55,103.442,16.195,134.45,47.873
			c22.672,23.162,42.748,61.158,45.835,101.856c4.04,53.237-17.754,90.638-42.78,119.172
			c-26.449,30.156-63.516,50.697-107.967,53.983c-48.084,3.555-90.5-15.546-120.19-41.761
			C26.83,257.593,4.167,221.921,0.477,174.021c-3.989-51.782,17.725-92.56,39.724-118.153C62.539,29.88,98.963,5.11,145.113,0.866z
			 M96.222,31.423C48.12,56.044,4.344,113.506,19.83,190.318c9.2,45.634,36.356,80.32,77.411,100.838
			c100.224,50.087,202.565-21.86,210.842-114.079c3.949-44.003-10.427-79.662-28.52-103.894
			c-23.512-31.491-69.451-62.19-132.413-56.021C124.537,19.378,110.189,24.273,96.222,31.423z"/>
		<path fill-rule="evenodd" clip-rule="evenodd" fill="#FFFFFF" d="M153.261,30.404C215.265,25.556,261.1,61.074,281.6,103.741
			c46.748,97.298-31.657,196.524-130.375,189.453C77.681,287.925,6.561,208.88,38.164,118c12.256-35.243,35.85-62.16,71.299-77.411
			C121.711,35.32,135.59,31.786,153.261,30.404z M147.15,47.72C92.96,58.458,52.179,96.229,48.349,154.668
			c-4.248,64.824,39.812,110.624,101.856,120.191c-1.336-75.393,2.686-155.669-2.037-227.14
			C147.829,47.72,147.489,47.72,147.15,47.72z M175.669,47.72c0,75.712,0,151.427,0,227.14
			c59.052-8.516,94.288-46.271,100.837-103.894c-8.148,0-16.297,0-24.445,0c-5.049,36.033-23.457,58.707-51.947,71.299
			c0.667-23.439-1.341-49.553,1.019-71.299c11.205,0,22.409,0,33.613,0c0-8.149,0-16.297,0-24.446
			c-11.254-0.63-25.057,1.291-34.631-1.019c0.678-21.391-1.356-45.494,1.019-65.188c25.328,13.039,43.785,32.946,49.91,65.188
			c8.488,0,16.977,0,25.464,0C265.611,90.191,232.543,57.053,175.669,47.72z"/>
		<path fill-rule="evenodd" clip-rule="evenodd" fill="#FFFFFF" d="M125.76,242.265C68.151,221.162,57.949,138.958,99.277,97.629
			c6.307-6.307,16.974-12.599,25.464-17.315C127.118,132.261,125.081,188.62,125.76,242.265z"/>
	</g>
	<g>
		<path fill="#FFFFFF" d="M352.959,1.394H341.6v321.388h20.219V52.27c0-4.088-0.226-8.403-0.683-12.945L570.14,318.236
			c2.119,3.03,4.921,4.546,8.408,4.546h11.129V1.394h-20.443v269.602c0,4.238,0.229,8.63,0.682,13.176L361.819,5.709
			c-1.364-1.817-2.651-2.989-3.861-3.521C356.743,1.66,355.079,1.394,352.959,1.394L352.959,1.394z"/>
		<path fill="#FFFFFF" d="M612.441,1.394v321.388h192.646v-19.311H635.839V169.467H776.69v-18.85H635.839V20.7h169.249V1.394
			H612.441z"/>
	</g>
</g>
</svg>
